<svg width="500" height="400" viewBox="0 0 500 400" fill="none" xmlns="http://www.w3.org/2000/svg">
  <rect width="500" height="400" rx="10" fill="#F9FAFB"/>
  
  <!-- Top Section -->
  <rect x="50" y="50" width="400" height="100" rx="8" fill="#FFFFFF" stroke="#E5E7EB" stroke-width="2"/>
  <rect x="70" y="70" width="140" height="14" rx="7" fill="#3B82F6"/>
  <rect x="70" y="94" width="360" height="10" rx="5" fill="#E5E7EB"/>
  <rect x="70" y="114" width="320" height="10" rx="5" fill="#E5E7EB"/>
  
  <!-- Middle Section - Stats -->
  <rect x="50" y="170" width="190" height="80" rx="8" fill="#FFFFFF" stroke="#E5E7EB" stroke-width="2"/>
  <circle cx="100" cy="210" r="25" fill="#10B981" fill-opacity="0.2" stroke="#10B981" stroke-width="2"/>
  <text x="93" y="215" font-family="Arial" font-size="14" font-weight="bold" fill="#10B981">98%</text>
  <rect x="140" y="195" width="80" height="10" rx="5" fill="#D1D5DB"/>
  <rect x="140" y="215" width="60" height="8" rx="4" fill="#E5E7EB"/>
  
  <rect x="260" y="170" width="190" height="80" rx="8" fill="#FFFFFF" stroke="#E5E7EB" stroke-width="2"/>
  <circle cx="310" cy="210" r="25" fill="#3B82F6" fill-opacity="0.2" stroke="#3B82F6" stroke-width="2"/>
  <text x="303" y="215" font-family="Arial" font-size="14" font-weight="bold" fill="#3B82F6">85%</text>
  <rect x="350" y="195" width="80" height="10" rx="5" fill="#D1D5DB"/>
  <rect x="350" y="215" width="60" height="8" rx="4" fill="#E5E7EB"/>
  
  <!-- Bottom Section - Security -->
  <rect x="50" y="270" width="400" height="80" rx="8" fill="#FFFFFF" stroke="#E5E7EB" stroke-width="2"/>
  <circle cx="90" cy="310" r="20" fill="#3B82F6"/>
  <path d="M82 310L88 316L98 306" stroke="white" stroke-width="3" stroke-linecap="round" stroke-linejoin="round"/>
  <rect x="130" y="295" width="100" height="10" rx="5" fill="#D1D5DB"/>
  <rect x="130" y="315" width="280" height="8" rx="4" fill="#E5E7EB"/>
</svg>