<svg width="600" height="400" viewBox="0 0 600 400" fill="none" xmlns="http://www.w3.org/2000/svg">
  <rect width="600" height="400" fill="#F0F9FF"/>
  <rect x="50" y="70" width="500" height="260" rx="10" fill="#FFFFFF" stroke="#E5E7EB" stroke-width="2"/>
  
  <!-- Header -->
  <rect x="50" y="70" width="500" height="50" rx="10" fill="#3B82F6" stroke="#2563EB" stroke-width="2"/>
  <text x="80" y="103" font-family="Arial" font-size="18" font-weight="bold" fill="white">AChecker Dashboard</text>
  
  <!-- Sidebar -->
  <rect x="50" y="120" width="120" height="210" fill="#F9FAFB" stroke="#E5E7EB" stroke-width="2"/>
  <circle cx="85" cy="150" r="15" fill="#3B82F6"/>
  <rect x="70" y="180" width="80" height="8" rx="4" fill="#E5E7EB"/>
  <rect x="70" y="200" width="80" height="8" rx="4" fill="#E5E7EB"/>
  <rect x="70" y="220" width="80" height="8" rx="4" fill="#E5E7EB"/>
  <rect x="70" y="240" width="80" height="8" rx="4" fill="#E5E7EB"/>
  <rect x="70" y="260" width="80" height="8" rx="4" fill="#E5E7EB"/>
  
  <!-- Main Content -->
  <rect x="190" y="140" width="340" height="60" rx="8" fill="#F9FAFB" stroke="#E5E7EB" stroke-width="2"/>
  <rect x="210" y="160" width="200" height="10" rx="5" fill="#D1D5DB"/>
  <rect x="210" y="180" width="140" height="8" rx="4" fill="#E5E7EB"/>
  
  <rect x="190" y="220" width="160" height="90" rx="8" fill="#F9FAFB" stroke="#E5E7EB" stroke-width="2"/>
  <circle cx="270" cy="255" r="25" fill="#3B82F6" fill-opacity="0.2" stroke="#3B82F6" stroke-width="2"/>
  <text x="265" y="260" font-family="Arial" font-size="14" font-weight="bold" fill="#3B82F6">65%</text>
  <rect x="210" y="290" width="120" height="8" rx="4" fill="#E5E7EB"/>
  
  <rect x="370" y="220" width="160" height="90" rx="8" fill="#F9FAFB" stroke="#E5E7EB" stroke-width="2"/>
  <rect x="390" y="240" width="120" height="10" rx="5" fill="#D1D5DB"/>
  <rect x="390" y="260" width="120" height="8" rx="4" fill="#E5E7EB"/>
  <rect x="390" y="275" width="120" height="8" rx="4" fill="#E5E7EB"/>
  <rect x="390" y="290" width="80" height="8" rx="4" fill="#E5E7EB"/>
</svg>